<svg width="278" height="280" viewBox="0 0 278 280" fill="none" xmlns="http://www.w3.org/2000/svg">
<path d="M275.473 163.777C276.78 156.043 277.459 148.099 277.459 139.944C277.459 129.159 276.257 118.848 273.958 108.746C259.899 46.5078 204.554 0 138.39 0C72.3307 0 16.9852 46.4552 2.87441 108.746C1.46333 114.691 0.574882 120.794 0 127.055V152.887C0.313572 156.517 0.783933 160.252 1.41108 163.724C4.80811 183.927 12.5952 202.656 23.5702 218.86C48.5514 255.688 90.7269 279.941 138.39 279.941C186.157 279.941 228.333 255.688 253.314 218.86H138.39C103.322 218.86 73.6372 195.712 63.6551 163.724H275.473V163.777ZM66.4773 108.746C78.4453 80.7048 106.144 61.081 138.442 61.081C170.792 61.081 198.491 80.7048 210.511 108.746H66.4773Z" fill="#4285F4"/>
</svg>
