<svg width="203" height="202" viewBox="0 0 203 202" fill="none" xmlns="http://www.w3.org/2000/svg">
<g clip-path="url(#clip0_217_2)">
<path d="M192.055 55.2903H181.716V73.3763H156.192V82.5376H148.903C139.472 66.2581 121.778 55.2903 101.511 55.2903C81.2433 55.2903 63.5497 66.2581 54.0973 82.5376C52.3885 85.4839 50.9393 88.6022 49.8145 91.871C47.8678 97.4409 46.8079 103.419 46.8079 109.656V202H0V100.925C0 97.871 0.129782 94.8602 0.410975 91.871C0.692168 88.7097 1.10314 85.6129 1.68716 82.5376C3.46084 72.9032 6.61886 63.7419 10.9449 55.2903C19.1644 39.1828 31.6018 25.5699 46.8079 15.871C62.598 5.82796 81.373 0 101.511 0C121.627 0 140.402 5.82796 156.192 15.871C171.398 25.5699 183.836 39.1828 192.055 55.2903Z" fill="#0F9D58"/>
<path d="M203 178.581C203 191.441 192.531 201.849 179.596 201.849C169.04 201.849 160.085 194.882 157.187 185.312C156.538 183.183 156.192 180.925 156.192 178.581C156.192 165.72 166.683 155.312 179.596 155.312C181.954 155.312 184.225 155.656 186.366 156.301C195.992 159.183 203 168.064 203 178.581Z" fill="#F4B400"/>
<path d="M203 100.925V147.29H156.192V91.8709H164.476V82.5376H190V64.215H196.078C198.393 70.086 200.145 76.215 201.313 82.5376C201.897 85.6128 202.308 88.7096 202.589 91.8709C202.87 94.8602 203 97.8709 203 100.925Z" fill="#4285F4"/>
</g>
<defs>
<clipPath id="clip0_217_2">
<rect width="203" height="202" fill="white"/>
</clipPath>
</defs>
</svg>
