<svg xmlns="http://www.w3.org/2000/svg" width="22" height="22" viewBox="0 0 22 22" fill="none">
  <path d="M21.9999 0.0400537V10.7097C21.9999 12.9307 21.3192 14.9959 20.1608 16.6977C19.4204 17.7802 18.4889 18.7309 17.4061 19.4779C15.973 20.4726 14.2772 21.1197 12.45 21.3114H10.2686C5.67075 20.8441 1.9328 17.4407 0.969451 12.9866C0.81022 12.2516 0.726624 11.4966 0.726624 10.7097C0.726624 4.82961 5.48764 0.0640215 11.3593 0.0640215C11.8927 0.0640215 12.4182 0.103968 12.9317 0.179866L7.21132 6.30363C7.0282 6.47939 6.85304 6.66315 6.69381 6.85489L6.65002 6.90682C5.81804 7.95341 5.31646 9.27563 5.31646 10.7097C5.31646 14.0532 8.02339 16.7656 11.3633 16.7656C11.7892 16.7656 12.2032 16.7216 12.6053 16.6337C15.352 16.0625 17.4101 13.6258 17.4101 10.7057V6.6232L16.5263 7.56194L15.2923 8.89215L11.7215 5.30897L12.2709 4.72176L15.7421 1.00276L16.6418 0.0400537H21.9999Z" fill="#F4B400"/>
</svg>