<svg width="55" height="53" viewBox="0 0 55 53" fill="none" xmlns="http://www.w3.org/2000/svg">
<path d="M9.45411 0L6.68839 2.80217L10.8036 6.97552L13.5654 4.17335L9.45411 0ZM45.5479 0L41.4327 4.17335L44.1964 6.97552L48.3096 2.80416L45.5479 0ZM27.5 1.24364C26.8518 1.24895 26.197 1.29147 25.5357 1.37119H25.4768C17.5096 2.29794 11.1689 8.82901 10.067 16.8768C9.18696 23.354 11.8191 29.2274 16.2054 33.0102C17.9993 34.564 19.2128 36.6959 19.6429 39.049V51.007H24.1214C24.805 52.1968 26.0523 53 27.5 53C28.9477 53 30.195 52.1968 30.8786 51.007H35.3571V43.035H35.5418V40.6673C35.5418 37.7455 37.0386 34.7999 39.4704 32.5099C42.7232 29.2055 45.1786 24.512 45.1786 19.1209C45.1786 9.27545 37.1918 1.15196 27.5 1.24364ZM27.5 5.22965C35.092 5.12203 41.25 11.4279 41.25 19.1209C41.25 23.2943 39.3446 26.9694 36.7066 29.644L36.7695 29.7077C34.1489 32.1614 32.454 35.4656 31.9766 39.051H23.3848C22.9527 35.6349 21.5089 32.3285 18.7805 29.9569C15.3096 26.9674 13.2413 22.4632 13.9327 17.377C14.7911 11.099 19.8118 6.05077 25.9639 5.35919C26.4719 5.28772 26.9834 5.24513 27.4961 5.23164L27.5 5.22965ZM0 19.1209V23.1069H5.89286V19.1209H0ZM49.1071 19.1209V23.1069H55V19.1209H49.1071ZM10.8036 35.2523L6.69036 39.4236L9.45411 42.2278L13.5634 38.0545L10.8036 35.2523ZM44.1964 35.2523L41.4346 38.0545L45.5459 42.2278L48.3096 39.4236L44.1964 35.2523ZM23.5714 43.037H31.4286V47.023H23.5714V43.037Z" fill="white"/>
</svg>
