<svg xmlns="http://www.w3.org/2000/svg" width="70" height="22" viewBox="0 0 70 22" fill="none">
  <path d="M69.9999 0.0400537V10.7097C69.9999 12.9307 69.3192 14.9959 68.1608 16.6977C67.4204 17.7802 66.4889 18.7309 65.4061 19.4779C63.973 20.4726 62.2772 21.1197 60.45 21.3114H58.2686C53.6708 20.8441 49.9328 17.4407 48.9695 12.9866C48.8102 12.2516 48.7266 11.4966 48.7266 10.7097C48.7266 4.82961 53.4876 0.0640215 59.3593 0.0640215C59.8927 0.0640215 60.4182 0.103968 60.9317 0.179866L55.2113 6.30363C55.0282 6.47939 54.853 6.66315 54.6938 6.85489L54.65 6.90682C53.818 7.95341 53.3165 9.27563 53.3165 10.7097C53.3165 14.0532 56.0234 16.7656 59.3633 16.7656C59.7892 16.7656 60.2032 16.7216 60.6053 16.6337C63.352 16.0625 65.4101 13.6258 65.4101 10.7057V6.6232L64.5263 7.56194L63.2923 8.89215L59.7215 5.30897L60.2709 4.72176L63.7421 1.00276L64.6418 0.0400537H69.9999Z" fill="#F4B400"/>
  <path d="M45.5616 12.4833C45.6611 11.8961 45.7129 11.2929 45.7129 10.6738C45.7129 9.85488 45.6213 9.07193 45.4462 8.30496C44.3754 3.57932 40.1597 0.0480654 35.12 0.0480654C30.0883 0.0480654 25.8727 3.57532 24.7979 8.30496C24.6904 8.75635 24.6227 9.21973 24.5789 9.69509V11.6565C24.6028 11.9321 24.6386 12.2157 24.6864 12.4793C24.9452 14.0133 25.5383 15.4354 26.3743 16.6657C28.2771 19.462 31.4896 21.3035 35.12 21.3035C38.7585 21.3035 41.971 19.462 43.8738 16.6657H35.12C32.4489 16.6657 30.1879 14.9081 29.4275 12.4793H45.5616V12.4833ZM29.6425 8.30496C30.5541 6.17582 32.6639 4.68583 35.124 4.68583C37.5881 4.68583 39.6979 6.17582 40.6135 8.30496H29.6425Z" fill="#4285F4"/>
  <path fill-rule="evenodd" clip-rule="evenodd" d="M10.7059 0C4.79318 0 0 4.79318 0 10.7059V12.1882V12.4635V21.4117H4.94116V12.1882H4.94115V11.6941C4.94115 8.51034 7.52209 5.9294 10.7058 5.9294C13.8896 5.9294 16.4705 8.51034 16.4705 11.6941V12.1882V12.4635V21.4117H21.4117V12.4635H21.4117V10.7059C21.4117 4.79318 16.6185 0 10.7059 0Z" fill="#0F9D58"/>
</svg>