<svg width="29" height="29" viewBox="0 0 29 29" fill="none" xmlns="http://www.w3.org/2000/svg">
<path d="M14.5 17.0829C15.9264 17.0829 17.0828 15.9265 17.0828 14.5C17.0828 13.0736 15.9264 11.9172 14.5 11.9172C13.0735 11.9172 11.9172 13.0736 11.9172 14.5C11.9172 15.9265 13.0735 17.0829 14.5 17.0829Z" fill="#61DAFB"/>
<path d="M24.3102 10.2407C23.8117 10.0594 23.2906 9.87817 22.7469 9.71958C22.8828 9.17583 22.9961 8.63208 23.0867 8.11099C23.5625 5.12036 23.0414 3.01333 21.5914 2.1977C21.1609 1.94849 20.6852 1.83521 20.1414 1.83521C18.5555 1.83521 16.5391 3.01333 14.5 4.98442C12.4609 3.01333 10.4445 1.83521 8.85861 1.83521C8.31486 1.83521 7.83908 1.94849 7.40861 2.1977C5.95861 3.03599 5.43751 5.14302 5.91329 8.11099C6.00392 8.63208 6.1172 9.17583 6.25314 9.71958C5.70939 9.87817 5.18829 10.0368 4.68986 10.2407C1.85782 11.3282 0.3172 12.8235 0.3172 14.5C0.3172 16.1766 1.88048 17.6719 4.68986 18.7594C5.18829 18.9407 5.70939 19.1219 6.25314 19.2805C6.1172 19.8243 6.00392 20.368 5.91329 20.8891C5.43751 23.8797 5.95861 25.9868 7.40861 26.8024C7.83908 27.0516 8.31486 27.1649 8.85861 27.1649C10.4672 27.1649 12.4836 25.9868 14.5 24.0157C16.5391 25.9868 18.5555 27.1649 20.1414 27.1649C20.6852 27.1649 21.1609 27.0516 21.5914 26.8024C23.0414 25.9641 23.5625 23.8571 23.0867 20.8891C22.9961 20.368 22.8828 19.8243 22.7469 19.2805C23.2906 19.1219 23.8117 18.9633 24.3102 18.7594C27.1422 17.6719 28.6828 16.1766 28.6828 14.5C28.6828 12.8235 27.1422 11.3282 24.3102 10.2407ZM20.957 3.33052C21.886 3.87427 22.2031 5.55083 21.818 7.92974C21.75 8.40552 21.6367 8.90396 21.5008 9.42505C20.3227 9.15317 19.0766 8.97192 17.7625 8.85864C16.9922 7.77114 16.1992 6.79692 15.4063 5.91333C17.0828 4.25942 18.782 3.12661 20.1641 3.12661C20.4586 3.12661 20.7305 3.19458 20.957 3.33052ZM18.4195 16.7657C18.0117 17.4907 17.5359 18.2157 17.0375 18.9407C16.1992 19.0086 15.3609 19.0313 14.5 19.0313C13.6164 19.0313 12.7781 19.0086 11.9625 18.9407C11.4641 18.2157 11.0109 17.4907 10.6031 16.7657C10.1727 16.018 9.76486 15.2477 9.40236 14.5C9.76486 13.7524 10.1727 12.9821 10.6031 12.2344C11.0109 11.5094 11.4867 10.7844 11.9852 10.0594C12.8235 9.99146 13.6617 9.9688 14.5227 9.9688C15.4063 9.9688 16.2445 9.99146 17.0602 10.0594C17.5586 10.7844 18.0117 11.5094 18.4195 12.2344C18.85 12.9821 19.2578 13.7524 19.6203 14.5C19.2352 15.2477 18.85 15.9954 18.4195 16.7657ZM20.3 16.018C20.6399 16.811 20.9117 17.5813 21.1609 18.3516C20.3906 18.5329 19.575 18.6688 18.7141 18.7821C18.9859 18.3516 19.2805 17.8985 19.5297 17.4227C19.8016 16.9469 20.0508 16.4711 20.3 16.018ZM14.5 22.1579C13.9563 21.5688 13.4352 20.9344 12.9367 20.2774C13.4578 20.3001 13.9789 20.3227 14.5 20.3227C15.0211 20.3227 15.5422 20.3001 16.0633 20.2774C15.5649 20.9344 15.0438 21.5688 14.5 22.1579ZM10.2859 18.7594C9.42501 18.6461 8.60939 18.5102 7.83907 18.329C8.08829 17.5813 8.36017 16.7883 8.70001 15.9954C8.94923 16.4485 9.19845 16.9243 9.47032 17.3774C9.7422 17.8758 10.0141 18.3063 10.2859 18.7594ZM8.70001 12.9821C8.36017 12.1891 8.08829 11.4188 7.83907 10.6485C8.60939 10.4672 9.42501 10.3313 10.2859 10.218C10.0141 10.6485 9.71954 11.1016 9.47032 11.5774C9.19845 12.0532 8.94923 12.529 8.70001 12.9821ZM14.5 6.84224C15.0438 7.4313 15.5649 8.06567 16.0633 8.72271C15.5422 8.70005 15.0211 8.67739 14.5 8.67739C13.9789 8.67739 13.4578 8.70005 12.9367 8.72271C13.4352 8.06567 13.9563 7.4313 14.5 6.84224ZM19.5297 11.6L18.7141 10.2407C19.575 10.354 20.3906 10.4899 21.1609 10.6711C20.9117 11.4188 20.6399 12.2118 20.3 13.0047C20.0508 12.529 19.8016 12.0532 19.5297 11.6ZM7.18204 7.92974C6.79689 5.55083 7.11407 3.87427 8.04298 3.33052C8.26954 3.19458 8.54142 3.12661 8.83595 3.12661C10.1953 3.12661 11.8945 4.23677 13.5938 5.91333C12.8008 6.77427 12.0078 7.77114 11.2375 8.85864C9.92345 8.97192 8.67736 9.17583 7.49923 9.42505C7.36329 8.90396 7.27267 8.40552 7.18204 7.92974ZM1.58595 14.5C1.58595 13.4352 2.87736 12.3024 5.14298 11.4641C5.59611 11.2829 6.09454 11.1243 6.59298 10.9883C6.95548 12.1211 7.40861 13.3219 7.95236 14.5227C7.40861 15.7235 6.93283 16.9016 6.59298 18.0344C3.46642 17.1282 1.58595 15.7688 1.58595 14.5ZM8.04298 25.6696C7.11407 25.1258 6.79689 23.4493 7.18204 21.0704C7.25001 20.5946 7.36329 20.0961 7.49923 19.5751C8.67736 19.8469 9.92345 20.0282 11.2375 20.1415C12.0078 21.229 12.8008 22.2032 13.5938 23.0868C11.9172 24.7407 10.218 25.8735 8.83595 25.8735C8.54142 25.8735 8.26954 25.8055 8.04298 25.6696ZM21.818 21.0704C22.2031 23.4493 21.886 25.1258 20.957 25.6696C20.7305 25.8055 20.4586 25.8735 20.1641 25.8735C18.8047 25.8735 17.1055 24.7633 15.4063 23.0868C16.1992 22.2258 16.9922 21.229 17.7625 20.1415C19.0766 20.0282 20.3227 19.8243 21.5008 19.5751C21.6367 20.0961 21.7274 20.5946 21.818 21.0704ZM23.857 17.536C23.4039 17.7172 22.9055 17.8758 22.407 18.0118C22.0445 16.879 21.5914 15.6782 21.0477 14.4774C21.5914 13.2766 22.0672 12.0985 22.407 10.9657C25.5336 11.8719 27.4141 13.2313 27.4141 14.5C27.4141 15.5649 26.1 16.6977 23.857 17.536Z" fill="#61DAFB"/>
</svg>
