<svg width="16" height="13" viewBox="0 0 16 13" fill="none" xmlns="http://www.w3.org/2000/svg">
<path d="M8.88 12.8159V8.73594C8.88 6.39994 9.424 4.47994 10.512 2.97593C11.632 1.43994 13.248 0.447936 15.36 -6.38962e-05V2.63994C14.336 2.89594 13.536 3.37594 12.96 4.07994C12.384 4.75194 12.032 5.58394 11.904 6.57594H14.4V12.8159H8.88ZM2.74181e-06 12.8159V8.73594C2.74181e-06 6.39994 0.544003 4.47994 1.632 2.97593C2.752 1.43994 4.368 0.447936 6.48 -6.38962e-05V2.63994C5.456 2.89594 4.656 3.37594 4.08 4.07994C3.504 4.75194 3.152 5.58394 3.024 6.57594H5.52V12.8159H2.74181e-06Z" fill="#0F9D58"/>
</svg>
