<svg width="33" height="27" viewBox="0 0 33 27" fill="none" xmlns="http://www.w3.org/2000/svg">
<g clip-path="url(#clip0_23_78)">
<path d="M32.9999 3.19823C32.0809 4.575 30.9535 5.74862 29.6177 6.71911C29.6308 6.97939 29.6374 7.27358 29.6374 7.60166C29.6374 9.42457 29.3736 11.2497 28.8459 13.077C28.3181 14.9044 27.512 16.6534 26.4275 18.3243C25.3431 19.9951 24.0512 21.4753 22.5521 22.7649C21.0529 24.0545 19.2508 25.0828 17.1459 25.8497C15.0409 26.6166 12.785 27 10.378 27C6.62158 27 3.16227 25.9786 9.15527e-05 23.9357C0.561341 23.9986 1.09963 24.0301 1.61495 24.0301C4.75315 24.0301 7.55606 23.0565 10.0237 21.1093C8.56049 21.0823 7.25008 20.6286 6.09246 19.7483C4.93485 18.8679 4.1382 17.743 3.70253 16.3736C4.13316 16.4562 4.55819 16.4975 4.97759 16.4975C5.58131 16.4975 6.17535 16.4182 6.75972 16.2596C5.19821 15.9446 3.9028 15.1612 2.8735 13.9095C1.84423 12.6578 1.3296 11.2131 1.3296 9.57539V9.49099C2.28806 10.0255 3.31041 10.3098 4.39665 10.344C3.47162 9.72283 2.73822 8.91284 2.19643 7.914C1.6546 6.91516 1.38369 5.83424 1.38369 4.67124C1.38369 3.44467 1.68884 2.3025 2.29915 1.24473C3.99727 3.34365 6.05489 5.02118 8.47202 6.27731C10.8892 7.53346 13.4823 8.23108 16.2515 8.37019C16.1334 7.87441 16.0742 7.35705 16.074 6.81809C16.074 4.93627 16.7352 3.32946 18.0575 1.99768C19.3798 0.665892 20.9752 0 22.8435 0C24.7996 0 26.4472 0.717399 27.7863 2.1522C29.3164 1.84694 30.749 1.29479 32.0843 0.495774C31.5698 2.12639 30.5786 3.38431 29.1106 4.26951C30.4598 4.10801 31.7563 3.75092 32.9998 3.19823H32.9999Z" fill="black" fill-opacity="0.7"/>
</g>
<defs>
<clipPath id="clip0_23_78">
<rect width="33" height="27" fill="white"/>
</clipPath>
</defs>
</svg>
